# xmcd
#
# Track frame offsets:
#	150
#	11965
#	26588
#	51635
#	65843
#	82030
#	93716
#	111947
#	127108
#	138580
#	151197
#	168734
#	182700
#	199206
#
# Disc length: 2847 seconds
#
# Revision: 1
# Processed by: cddbd v1.5.2PL0 Copyright (c) Steve Scherf et al.
# Submitted via: EasyCDDAExtractor 16.0.6.1
#
DISCID=d90b1d0e
DTITLE=Les Boek - Back Tracks
DYEAR=2011
DGENRE=Bluegrass
TTITLE0=Music's Got a Hold on Me
TTITLE1=She's All I Need
TTITLE2=Kind Word
TTITLE3=Road to Idaho
TTITLE4=Ponderosa Pine
TTITLE5=OK Till Then
TTITLE6=Highway of Time
TTITLE7=Cafe Latte
TTITLE8=Love Grows
TTITLE9=I Won't Forsake
TTITLE10=Rock of Ages Sings
TTITLE11=Sandman
TTITLE12=Got to Get Something Done
TTITLE13=Tomki Road
EXTD=
EXTT0=
EXTT1=
EXTT2=
EXTT3=
EXTT4=
EXTT5=
EXTT6=
EXTT7=
EXTT8=
EXTT9=
EXTT10=
EXTT11=
EXTT12=
EXTT13=
PLAYORDER=
